name analog
datacolumns 19
datarows 71
range 0.355 0.39
endheader
time	ground_force_vx	ground_force_vy	ground_force_vz	ground_force_px	ground_force_py	ground_force_pz	l_ground_force_vx	l_ground_force_vy	l_ground_force_vz	l_ground_force_px	l_ground_force_py	l_ground_force_pz	ground_torque_x	ground_torque_y	ground_torque_z	l_ground_torque_x	l_ground_torque_y	l_ground_torque_z
0.355	-0.0	-0.0	-0.0	-0.0	-0.0	-0.0	3.812002897262573	4.156218528747559	-512.5444946289062	-0.0	-0.0	-0.0	-0.0	-0.0	-0.0	155861.546875	28491.29296875	-201.3125457763672
0.3555	-0.0	-0.0	-0.0	-0.0	-0.0	-0.0	4.691732883453369	4.771844863891602	-513.59228515625	-0.0	-0.0	-0.0	-0.0	-0.0	-0.0	156362.15625	28192.951171875	330.0224304199219
0.356	-0.0	-0.0	-0.0	-0.0	-0.0	-0.0	6.542703151702881	4.9508585929870605	-514.6016845703125	-0.0	-0.0	-0.0	-0.0	-0.0	-0.0	156552.890625	28302.0078125	808.466796875
0.3565	-0.0	-0.0	-0.0	-0.0	-0.0	-0.0	6.66042423248291	4.757564067840576	-514.6868896484375	-0.0	-0.0	-0.0	-0.0	-0.0	-0.0	156568.921875	28478.3125	1130.0064697265625
0.357	-0.0	-0.0	-0.0	-0.0	-0.0	-0.0	6.036922931671143	4.5927276611328125	-514.318359375	-0.0	-0.0	-0.0	-0.0	-0.0	-0.0	156440.4375	28792.82421875	838.355224609375
0.3575	-0.0	-0.0	-0.0	-0.0	-0.0	-0.0	4.70615816116333	4.941547870635986	-512.9390258789062	-0.0	-0.0	-0.0	-0.0	-0.0	-0.0	156276.453125	29127.59765625	859.608642578125
0.358	-0.0	-0.0	-0.0	-0.0	-0.0	-0.0	4.076313018798828	4.946014404296875	-516.0375366210938	-0.0	-0.0	-0.0	-0.0	-0.0	-0.0	156022.78125	29432.529296875	718.2909545898438
0.3585	-0.0	-0.0	-0.0	-0.0	-0.0	-0.0	4.522135257720947	4.580094814300537	-515.6968994140625	-0.0	-0.0	-0.0	-0.0	-0.0	-0.0	156050.75	29410.37109375	894.3007202148438
0.359	-0.0	-0.0	-0.0	-0.0	-0.0	-0.0	4.346828460693359	3.7115554809570312	-517.759521484375	-0.0	-0.0	-0.0	-0.0	-0.0	-0.0	156348.890625	29913.935546875	897.3892211914062
0.3595	-0.0	-0.0	-0.0	-0.0	-0.0	-0.0	4.080696105957031	3.5368049144744877	-516.0617065429688	-0.0	-0.0	-0.0	-0.0	-0.0	-0.0	156093.671875	29965.09375	955.6947631835938
0.36	-0.0	-0.0	-0.0	-0.0	-0.0	-0.0	3.897499084472656	3.0125210285186768	-516.4407348632812	-0.0	-0.0	-0.0	-0.0	-0.0	-0.0	156071.5	30302.86328125	982.4503784179688
0.3605	-0.0	-0.0	-0.0	-0.0	-0.0	-0.0	3.2785706520080566	3.087547063827514	-518.5047607421875	-0.0	-0.0	-0.0	-0.0	-0.0	-0.0	155603.8125	30452.31640625	834.9557495117188
0.361	-0.0	-0.0	-0.0	-0.0	-0.0	-0.0	2.664897918701172	2.640753746032715	-518.4901123046875	-0.0	-0.0	-0.0	-0.0	-0.0	-0.0	155236.3125	30587.95703125	805.2879638671875
0.3615	-0.0	-0.0	-0.0	-0.0	-0.0	-0.0	2.489109992980957	1.9413487911224363	-516.751220703125	-0.0	-0.0	-0.0	-0.0	-0.0	-0.0	154943.53125	30638.208984375	686.2777709960938
0.362	-0.0	-0.0	-0.0	-0.0	-0.0	-0.0	2.4788477420806885	1.9246259927749636	-514.7158203125	-0.0	-0.0	-0.0	-0.0	-0.0	-0.0	154484.484375	30980.533203125	599.4761352539062
0.3625	-0.0	-0.0	-0.0	-0.0	-0.0	-0.0	1.8613187074661253	0.6086471080780029	-514.0081176757812	-0.0	-0.0	-0.0	-0.0	-0.0	-0.0	154544.375	30833.126953125	624.4232177734375
0.363	-0.0	-0.0	-0.0	-0.0	-0.0	-0.0	1.8582866191864011	0.2603456079959869	-515.3173217773438	-0.0	-0.0	-0.0	-0.0	-0.0	-0.0	154300.640625	30944.525390625	536.374755859375
0.3635	-0.0	-0.0	-0.0	-0.0	-0.0	-0.0	1.8599863052368164	-0.2664287090301513	-512.566162109375	-0.0	-0.0	-0.0	-0.0	-0.0	-0.0	153734.921875	30943.15625	564.8718872070312
0.364	-0.0	-0.0	-0.0	-0.0	-0.0	-0.0	2.7486157417297363	0.0812599211931228	-513.9176635742188	-0.0	-0.0	-0.0	-0.0	-0.0	-0.0	153454.78125	30533.0078125	774.189208984375
0.3645	-0.0	-0.0	-0.0	-0.0	-0.0	-0.0	3.103519916534424	-0.0869700089097023	-513.2315673828125	-0.0	-0.0	-0.0	-0.0	-0.0	-0.0	153461.578125	30323.29296875	1038.1566162109375
0.365	-0.0	-0.0	-0.0	-0.0	-0.0	-0.0	3.9058358669281006	0.1740932017564773	-512.2155151367188	-0.0	-0.0	-0.0	-0.0	-0.0	-0.0	153447.484375	30652.970703125	1161.4326171875
0.3655	-0.0	-0.0	-0.0	-0.0	-0.0	-0.0	3.5570333003997803	0.0858748033642768	-513.5681762695312	-0.0	-0.0	-0.0	-0.0	-0.0	-0.0	153191.125	30461.15234375	1160.2708740234375
0.366	-0.0	-0.0	-0.0	-0.0	-0.0	-0.0	3.638320207595825	-0.1719523817300796	-513.5927734375	-0.0	-0.0	-0.0	-0.0	-0.0	-0.0	152943.046875	30235.25	1039.209716796875
0.3665	-0.0	-0.0	-0.0	-0.0	-0.0	-0.0	3.812361717224121	-0.2627727389335632	-509.4425659179688	-0.0	-0.0	-0.0	-0.0	-0.0	-0.0	152940.84375	30475.5859375	892.9339599609375
0.367	-0.0	-0.0	-0.0	-0.0	-0.0	-0.0	3.3751680850982666	0.0893566980957984	-511.8358154296875	-0.0	-0.0	-0.0	-0.0	-0.0	-0.0	152990.71875	30678.44921875	951.67236328125
0.3675	-0.0	-0.0	-0.0	-0.0	-0.0	-0.0	3.727778911590576	0.9696211218833924	-510.1257019042969	-0.0	-0.0	-0.0	-0.0	-0.0	-0.0	152941.5625	30874.228515625	1187.8489990234375
0.368	-0.0	-0.0	-0.0	-0.0	-0.0	-0.0	3.9928970336914062	1.3202868700027466	-510.47760009765625	-0.0	-0.0	-0.0	-0.0	-0.0	-0.0	153052.390625	30775.125	985.136962890625
0.3685	-0.0	-0.0	-0.0	-0.0	-0.0	-0.0	3.551011562347412	1.1498944759368896	-511.1613464355469	-0.0	-0.0	-0.0	-0.0	-0.0	-0.0	153065.578125	30926.47265625	1219.0430908203125
0.369	-0.0	-0.0	-0.0	-0.0	-0.0	-0.0	3.0161666870117188	0.6151329874992371	-513.228271484375	-0.0	-0.0	-0.0	-0.0	-0.0	-0.0	152964.984375	31129.447265625	921.1008911132812
0.3695	-0.0	-0.0	-0.0	-0.0	-0.0	-0.0	2.218491554260254	-0.173767939209938	-510.124755859375	-0.0	-0.0	-0.0	-0.0	-0.0	-0.0	152675.59375	31200.814453125	684.2894287109375
0.37	-0.0	-0.0	-0.0	-0.0	-0.0	-0.0	1.860915184020996	-1.0578577518463137	-511.5177001953125	-0.0	-0.0	-0.0	-0.0	-0.0	-0.0	153052.4375	31470.43359375	533.438232421875
0.3705	-0.0	-0.0	-0.0	-0.0	-0.0	-0.0	1.0633424520492554	-0.8879440426826477	-511.1603088378906	-0.0	-0.0	-0.0	-0.0	-0.0	-0.0	152847.109375	31776.54296875	444.300537109375
0.371	-0.0	-0.0	-0.0	-0.0	-0.0	-0.0	0.1795501410961151	-1.5871412754058838	-509.4289855957031	-0.0	-0.0	-0.0	-0.0	-0.0	-0.0	152685.21875	32017.005859375	147.33297729492188
0.3715	-0.0	-0.0	-0.0	-0.0	-0.0	-0.0	-0.5345414280891418	-1.588883638381958	-511.1543884277344	-0.0	-0.0	-0.0	-0.0	-0.0	-0.0	152487.890625	32385.55859375	-178.3112030029297
0.372	-0.0	-0.0	-0.0	-0.0	-0.0	-0.0	-1.95042622089386	-1.5006648302078247	-510.1105346679688	-0.0	-0.0	-0.0	-0.0	-0.0	-0.0	152352.734375	32598.16796875	-387.6707763671875
0.3725	-0.0	-0.0	-0.0	-0.0	-0.0	-0.0	-2.483559846878052	-1.588768720626831	-511.8481750488281	-0.0	-0.0	-0.0	-0.0	-0.0	-0.0	152291.0625	32918.16015625	-595.9081420898438
0.373	-0.0	-0.0	-0.0	-0.0	-0.0	-0.0	-3.0172271728515625	-1.3256170749664309	-509.7655334472656	-0.0	-0.0	-0.0	-0.0	-0.0	-0.0	152209.6875	33178.8046875	-803.41162109375
0.3735	-0.0	-0.0	-0.0	-0.0	-0.0	-0.0	-3.9028472900390634	-1.5895776748657229	-509.06640625	-0.0	-0.0	-0.0	-0.0	-0.0	-0.0	152091.171875	33187.58203125	-1011.5424194335938
0.374	-0.0	-0.0	-0.0	-0.0	-0.0	-0.0	-4.434889316558838	-1.8544318675994875	-510.4583740234375	-0.0	-0.0	-0.0	-0.0	-0.0	-0.0	151843.390625	33100.765625	-952.9830932617188
0.3745	-0.0	-0.0	-0.0	-0.0	-0.0	-0.0	-4.612875461578369	-1.943162202835083	-508.3637390136719	-0.0	-0.0	-0.0	-0.0	-0.0	-0.0	151780.359375	33323.13671875	-1219.9998779296875
0.375	-0.0	-0.0	-0.0	-0.0	-0.0	-0.0	-5.233936309814453	-1.6781120300292969	-508.3648376464844	-0.0	-0.0	-0.0	-0.0	-0.0	-0.0	151963.65625	33114.3203125	-1131.4150390625
0.3755	-0.0	-0.0	-0.0	-0.0	-0.0	-0.0	-5.588465213775635	-1.4131990671157837	-508.36370849609375	-0.0	-0.0	-0.0	-0.0	-0.0	-0.0	151685.15625	33094.7890625	-1280.0272216796875
0.376	-0.0	-0.0	-0.0	-0.0	-0.0	-0.0	-5.234452724456787	-1.0597574710845947	-508.3639221191406	-0.0	-0.0	-0.0	-0.0	-0.0	-0.0	152127.1875	33288.77734375	-1398.236328125
0.3765	-0.0	-0.0	-0.0	-0.0	-0.0	-0.0	-5.854135990142822	-0.8833713531494141	-506.618408203125	-0.0	-0.0	-0.0	-0.0	-0.0	-0.0	151720.703125	33486.5859375	-1576.42626953125
0.377	-0.0	-0.0	-0.0	-0.0	-0.0	-0.0	-6.121508598327637	-1.0596290826797483	-506.27349853515625	-0.0	-0.0	-0.0	-0.0	-0.0	-0.0	151664.140625	33413.953125	-1576.7391357421875
0.3775	-0.0	-0.0	-0.0	-0.0	-0.0	-0.0	-5.854911804199219	-0.9718306064605712	-504.8743896484375	-0.0	-0.0	-0.0	-0.0	-0.0	-0.0	151527.359375	33543.80078125	-1606.7593994140625
0.378	-0.0	-0.0	-0.0	-0.0	-0.0	-0.0	-5.678524017333984	-0.8832168579101562	-506.61224365234375	-0.0	-0.0	-0.0	-0.0	-0.0	-0.0	151786.203125	32973.3046875	-1576.2265625
0.3785	-0.0	-0.0	-0.0	-0.0	-0.0	-0.0	-5.233514785766602	-0.0908393263816833	-504.8798522949219	-0.0	-0.0	-0.0	-0.0	-0.0	-0.0	152336.234375	32707.259765625	-1427.619140625
0.379	-0.0	-0.0	-0.0	-0.0	-0.0	-0.0	-4.346345901489258	0.0883216857910156	-508.015625	-0.0	-0.0	-0.0	-0.0	-0.0	-0.0	152395.71875	33046.55859375	-1307.8023681640625
0.3795	-0.0	-0.0	-0.0	-0.0	-0.0	-0.0	-3.9015958309173584	-0.1772004514932632	-508.015625	-0.0	-0.0	-0.0	-0.0	-0.0	-0.0	153132.71875	32956.21875	-1041.8095703125
0.38	-0.0	-0.0	-0.0	-0.0	-0.0	-0.0	-3.1085448265075684	0.6176432371139526	-508.02044677734375	-0.0	-0.0	-0.0	-0.0	-0.0	-0.0	153550.671875	32767.8828125	-1010.4268798828124
0.3805	-0.0	-0.0	-0.0	-0.0	-0.0	-0.0	-2.9254398345947266	0.353955864906311	-508.3726806640625	-0.0	-0.0	-0.0	-0.0	-0.0	-0.0	153633.8125	32718.322265625	-802.9197387695312
0.381	-0.0	-0.0	-0.0	-0.0	-0.0	-0.0	-2.74404239654541	0.8794883489608765	-512.1995239257812	-0.0	-0.0	-0.0	-0.0	-0.0	-0.0	154133.953125	32787.9921875	-742.8282470703125
0.3815	-0.0	-0.0	-0.0	-0.0	-0.0	-0.0	-2.3080801963806152	0.8816240429878235	-509.7613525390625	-0.0	-0.0	-0.0	-0.0	-0.0	-0.0	154396.65625	32695.171875	-741.9486083984375
0.382	-0.0	-0.0	-0.0	-0.0	-0.0	-0.0	-2.3158416748046875	0.802520751953125	-511.5037841796875	-0.0	-0.0	-0.0	-0.0	-0.0	-0.0	154729.71875	32753.3828125	-1010.0206298828124
0.3825	-0.0	-0.0	-0.0	-0.0	-0.0	-0.0	-3.371009826660156	1.144486427307129	-510.1178283691406	-0.0	-0.0	-0.0	-0.0	-0.0	-0.0	154253.578125	32866.82421875	-1070.322509765625
0.383	-0.0	-0.0	-0.0	-0.0	-0.0	-0.0	-3.640108823776245	1.2384727001190186	-509.0747375488281	-0.0	-0.0	-0.0	-0.0	-0.0	-0.0	154244.09375	32738.45703125	-1276.8359375
0.3835	-0.0	-0.0	-0.0	-0.0	-0.0	-0.0	-4.345762729644775	1.3216418027877808	-508.72650146484375	-0.0	-0.0	-0.0	-0.0	-0.0	-0.0	154441.15625	32814.39453125	-1309.0419921875
0.384	-0.0	-0.0	-0.0	-0.0	-0.0	-0.0	-4.781440734863281	1.8491915464401243	-509.7525634765625	-0.0	-0.0	-0.0	-0.0	-0.0	-0.0	155068.0	33023.98828125	-1605.1627197265625
0.3845	-0.0	-0.0	-0.0	-0.0	-0.0	-0.0	-5.145225524902344	1.3306931257247925	-510.794921875	-0.0	-0.0	-0.0	-0.0	-0.0	-0.0	154771.578125	33235.3203125	-1694.565673828125
0.385	-0.0	-0.0	-0.0	-0.0	-0.0	-0.0	-5.048980712890625	1.9405767917633057	-509.05810546875	-0.0	-0.0	-0.0	-0.0	-0.0	-0.0	155061.21875	33069.7421875	-1782.1005859375
0.3855	-0.0	-0.0	-0.0	-0.0	-0.0	-0.0	-4.783846855163574	2.219754219055176	-508.7293701171875	-0.0	-0.0	-0.0	-0.0	-0.0	-0.0	155379.375	32850.0546875	-1693.688720703125
0.386	-0.0	-0.0	-0.0	-0.0	-0.0	-0.0	-3.729928970336914	3.0885534286499023	-510.1051940917969	-0.0	-0.0	-0.0	-0.0	-0.0	-0.0	155858.4375	32847.91015625	-1578.605712890625
0.3865	-0.0	-0.0	-0.0	-0.0	-0.0	-0.0	-3.1878457069396973	3.353365421295166	-512.881103515625	-0.0	-0.0	-0.0	-0.0	-0.0	-0.0	156307.75	32476.978515625	-1485.0975341796875
0.387	-0.0	-0.0	-0.0	-0.0	-0.0	-0.0	-1.7831976413726809	3.091259002685547	-513.9393920898438	-0.0	-0.0	-0.0	-0.0	-0.0	-0.0	157177.8125	33067.87109375	-1245.8720703125
0.3875	-0.0	-0.0	-0.0	-0.0	-0.0	-0.0	-1.0661033391952517	3.359358072280884	-513.5958862304688	-0.0	-0.0	-0.0	-0.0	-0.0	-0.0	157368.6875	32814.20703125	-892.4576416015625
0.388	-0.0	-0.0	-0.0	-0.0	-0.0	-0.0	-0.0065012276172637	3.894245147705078	-515.7033081054688	-0.0	-0.0	-0.0	-0.0	-0.0	-0.0	157999.65625	32304.134765625	-858.7291259765625
0.3885	-0.0	-0.0	-0.0	-0.0	-0.0	-0.0	0.7983970642089844	4.764334201812744	-516.0593872070312	-0.0	-0.0	-0.0	-0.0	-0.0	-0.0	158545.984375	32344.470703125	-620.6029663085938
0.389	-0.0	-0.0	-0.0	-0.0	-0.0	-0.0	1.692557692527771	5.481210708618164	-520.2012329101562	-0.0	-0.0	-0.0	-0.0	-0.0	-0.0	159565.625	32341.416015625	-296.4028015136719
0.3895	-0.0	-0.0	-0.0	-0.0	-0.0	-0.0	3.1954026222229004	5.656200885772705	-520.9342041015625	-0.0	-0.0	-0.0	-0.0	-0.0	-0.0	160347.359375	32068.66796875	59.39705657958984
0.39	-0.0	-0.0	-0.0	-0.0	-0.0	-0.0	4.350560188293457	6.084908485412598	-523.6980590820312	-0.0	-0.0	-0.0	-0.0	-0.0	-0.0	160989.96875	32134.396484375	303.1517944335937
